<svg width="1494" height="462" viewBox="0 0 1494 462" fill="none" xmlns="http://www.w3.org/2000/svg">
<g clip-path="url(#clip0_246_440)">
<path d="M494.478 371.733H254.54L419.912 0H537.805L414.957 270.844H532.277L494.478 371.733Z" fill="white"/>
<path d="M285.456 0.476562H397L232.544 372.477H121L285.456 0.476562Z" fill="white" fill-opacity="0.6"/>
<path d="M194.455 0.476562H263L97.5455 372.477H29L194.455 0.476562Z" fill="white" fill-opacity="0.3"/>
<path d="M1350.01 372.477H1253L1296.17 125.734H1366.5L1375.72 149.924H1378.15C1386.88 136.378 1405.79 118.477 1434.41 118.477C1445.57 118.477 1455.75 120.412 1464 123.798L1446.54 224.915C1438.78 221.528 1428.11 220.077 1418.89 220.077C1391.24 220.077 1373.78 235.075 1368.93 264.103L1350.01 372.477Z" fill="white"/>
<path d="M1165.01 372.477H1068L1111.17 125.734H1181.5L1190.72 149.924H1193.15C1201.88 136.378 1220.79 118.477 1249.41 118.477C1260.57 118.477 1270.75 120.412 1279 123.798L1261.54 224.915C1253.78 221.528 1243.11 220.077 1233.89 220.077C1206.24 220.077 1188.78 235.075 1183.93 264.103L1165.01 372.477Z" fill="white"/>
<path d="M933.951 257.852L995.602 125.477H1099L958.709 381.984C931.524 431.443 895.117 462.477 848.029 462.477C831.524 462.477 814.049 458.597 799 450.839L812.107 374.226C820.359 377.62 829.097 380.045 840.748 380.045C855.796 380.045 865.019 375.681 871.33 368.408L817.447 125.477H917.932L933.951 257.852Z" fill="white"/>
<path d="M696.714 118.477C768.86 118.477 817.281 160.688 803.723 237.832L779.997 373.199H709.787L700.587 348.94H698.166C685.093 366.891 661.367 380.477 629.894 380.477C587.284 380.477 550 352.336 550 305.273C550 247.051 602.778 222.306 665.725 222.306H714.145C716.082 203.384 708.335 191.254 693.809 191.254C683.156 191.254 673.472 197.562 669.598 209.206L578.084 198.047C588.252 166.025 619.725 118.477 696.714 118.477ZM668.146 311.095C687.03 311.095 701.072 298.965 704.945 276.647L706.398 268.399H673.956C660.399 268.399 643.936 274.706 643.936 291.202C643.936 303.332 653.135 311.095 668.146 311.095Z" fill="white"/>
</g>
<defs>
<clipPath id="clip0_246_440">
<rect width="1494" height="462" fill="white"/>
</clipPath>
</defs>
</svg>
